# 3ds Max Wavefront OBJ Exporter v0.97b - (c)2007 guruware
# File Created: 23.05.2016 13:47:29

mtllib tardis.mtl

#
# object Cylinder001
#

v  25.8336 0.0000 -0.4731
v  24.3359 0.0000 -8.9671
v  24.3359 64.6801 -8.9671
v  25.8336 64.6801 -0.4731
v  20.0234 0.0000 -16.4367
v  20.0234 64.6801 -16.4367
v  13.4162 0.0000 -21.9807
v  13.4162 64.6801 -21.9807
v  5.3113 0.0000 -24.9307
v  5.3113 64.6801 -24.9307
v  -3.3138 0.0000 -24.9307
v  -3.3138 64.6801 -24.9307
v  -11.4187 0.0000 -21.9807
v  -11.4187 64.6801 -21.9807
v  -18.0259 0.0000 -16.4367
v  -18.0259 64.6801 -16.4367
v  -18.0259 0.0000 15.4905
v  -11.4187 0.0000 21.0345
v  -11.4187 64.6801 21.0345
v  -18.0259 64.6801 15.4905
v  -3.3138 0.0000 23.9845
v  -3.3138 64.6801 23.9845
v  5.3113 0.0000 23.9845
v  5.3113 64.6801 23.9845
v  13.4162 0.0000 21.0346
v  13.4162 64.6801 21.0346
v  20.0234 0.0000 15.4905
v  20.0234 64.6801 15.4905
v  24.3359 0.0000 8.0209
v  24.3359 64.6801 8.0209
v  24.3359 83.0733 -8.9671
v  25.8336 83.0733 -0.4731
v  20.0234 83.0733 -16.4367
v  13.4162 83.0733 -21.9807
v  5.3113 83.0733 -24.9307
v  -3.3138 83.0733 -24.9307
v  -11.4187 83.0733 -21.9807
v  -18.0259 83.0733 -16.4367
v  -22.3384 64.6801 -8.9671
v  -22.3384 83.0733 -8.9671
v  -23.8361 64.6801 -0.4731
v  -23.8361 83.0733 -0.4731
v  -22.3384 64.6801 8.0209
v  -22.3384 83.0733 8.0209
v  -18.0259 83.0733 15.4905
v  -11.4187 83.0733 21.0345
v  -3.3138 83.0733 23.9845
v  5.3113 83.0733 23.9845
v  13.4162 83.0733 21.0346
v  20.0234 83.0733 15.4905
v  24.3359 83.0733 8.0209
v  -15.0259 0.0000 -16.4367
v  -15.0259 64.6801 -16.4367
v  -22.3384 0.0000 -8.9671
v  -19.3384 0.0000 -8.9671
v  -23.8361 0.0000 -0.4731
v  -20.8361 0.0000 -0.4731
v  -22.3384 0.0000 8.0209
v  -19.3384 0.0000 8.0209
v  -15.0259 0.0000 15.4905
v  -15.0259 64.6801 15.4905
v  -19.3384 64.6801 8.0209
v  -20.8361 64.6801 -0.4731
v  -19.3384 64.6801 -8.9671
# 64 vertices

vn 1.0000 0.0000 0.0000
vn 0.9397 0.0000 -0.3420
vn 0.7660 0.0000 -0.6428
vn 0.5000 0.0000 -0.8660
vn 0.1736 0.0000 -0.9848
vn -0.1736 -0.0000 -0.9848
vn -0.1736 0.0000 -0.9848
vn -0.5000 -0.0000 -0.8660
vn -0.5000 0.0000 -0.8660
vn -0.6428 0.0000 -0.7660
vn -0.7270 -0.0000 -0.6866
vn -0.6428 -0.0000 0.7660
vn -0.5000 -0.0000 0.8660
vn -0.5000 0.0000 0.8660
vn -0.7270 0.0000 0.6866
vn -0.1736 0.0000 0.9848
vn -0.1736 -0.0000 0.9848
vn 0.1736 0.0000 0.9848
vn 0.5000 0.0000 0.8660
vn 0.7660 0.0000 0.6428
vn 0.9397 0.0000 0.3420
vn -0.7660 0.0000 -0.6428
vn -0.9397 0.0000 -0.3420
vn -1.0000 0.0000 -0.0000
vn -0.9397 0.0000 0.3420
vn -0.7660 0.0000 0.6428
vn -0.0000 0.0000 1.0000
vn 0.0000 1.0000 -0.0000
vn 0.0000 0.0000 -1.0000
vn 0.0000 -1.0000 -0.0000
# 30 vertex normals

vt 0.7500 0.0000 1.0000
vt 0.8056 0.0000 1.0000
vt 0.8056 0.5000 1.0000
vt 0.7500 0.5000 1.0000
vt 0.8611 0.0000 1.0000
vt 0.8611 0.5000 1.0000
vt 0.9167 0.0000 1.0000
vt 0.9167 0.5000 1.0000
vt 0.9722 0.0000 1.0000
vt 0.9722 0.5000 1.0000
vt 1.0278 0.0000 1.0000
vt 1.0278 0.5000 1.0000
vt 0.0278 0.0000 1.0000
vt 0.0833 0.0000 1.0000
vt 0.0833 0.5000 1.0000
vt 0.0278 0.5000 1.0000
vt 0.1389 0.0000 1.0000
vt 0.1389 0.5000 1.0000
vt 0.3611 0.0000 1.0000
vt 0.4167 0.0000 1.0000
vt 0.4167 0.5000 1.0000
vt 0.3611 0.5000 1.0000
vt 0.4722 0.0000 1.0000
vt 0.4722 0.5000 1.0000
vt 0.5278 0.0000 1.0000
vt 0.5278 0.5000 1.0000
vt 0.5833 0.0000 1.0000
vt 0.5833 0.5000 1.0000
vt 0.6389 0.0000 1.0000
vt 0.6389 0.5000 1.0000
vt 0.6944 0.0000 1.0000
vt 0.6944 0.5000 1.0000
vt 0.8056 1.0000 1.0000
vt 0.7500 1.0000 1.0000
vt 0.8611 1.0000 1.0000
vt 0.9167 1.0000 1.0000
vt 0.9722 1.0000 1.0000
vt 1.0278 1.0000 1.0000
vt 0.0833 1.0000 1.0000
vt 0.0278 1.0000 1.0000
vt 0.1389 1.0000 1.0000
vt 0.1944 0.5000 1.0000
vt 0.1944 1.0000 1.0000
vt 0.2500 0.5000 1.0000
vt 0.2500 1.0000 1.0000
vt 0.3056 0.5000 1.0000
vt 0.3056 1.0000 1.0000
vt 0.3611 1.0000 1.0000
vt 0.4167 1.0000 1.0000
vt 0.4722 1.0000 1.0000
vt 0.5278 1.0000 1.0000
vt 0.5833 1.0000 1.0000
vt 0.6389 1.0000 1.0000
vt 0.6944 1.0000 1.0000
vt 0.1944 0.0000 1.0000
vt 0.2500 0.0000 1.0000
vt 0.3056 0.0000 1.0000
# 57 texture coords

g Cylinder001
usemtl wire_008061138
s 8
f 1/1/1 2/2/2 3/3/2 4/4/1 
f 2/2/2 5/5/3 6/6/3 3/3/2 
f 5/5/3 7/7/4 8/8/4 6/6/3 
f 7/7/4 9/9/5 10/10/5 8/8/4 
f 9/9/5 11/11/6 12/12/7 10/10/5 
f 11/13/6 13/14/8 14/15/9 12/16/7 
f 13/14/8 15/17/10 16/18/11 14/15/9 
f 17/19/12 18/20/13 19/21/14 20/22/15 
f 18/20/13 21/23/16 22/24/17 19/21/14 
f 21/23/16 23/25/18 24/26/18 22/24/17 
f 23/25/18 25/27/19 26/28/19 24/26/18 
f 25/27/19 27/29/20 28/30/20 26/28/19 
f 27/29/20 29/31/21 30/32/21 28/30/20 
f 29/31/21 1/1/1 4/4/1 30/32/21 
f 4/4/1 3/3/2 31/33/2 32/34/1 
f 3/3/2 6/6/3 33/35/3 31/33/2 
f 6/6/3 8/8/4 34/36/4 33/35/3 
f 8/8/4 10/10/5 35/37/5 34/36/4 
f 10/10/5 12/12/7 36/38/7 35/37/5 
f 12/16/7 14/15/9 37/39/9 36/40/7 
f 14/15/9 16/18/11 38/41/22 37/39/9 
f 16/18/11 39/42/23 40/43/23 38/41/22 
f 39/42/23 41/44/24 42/45/24 40/43/23 
f 41/44/24 43/46/25 44/47/25 42/45/24 
f 43/46/25 20/22/15 45/48/26 44/47/25 
f 20/22/15 19/21/14 46/49/14 45/48/26 
f 19/21/14 22/24/17 47/50/16 46/49/14 
f 22/24/17 24/26/18 48/51/18 47/50/16 
f 24/26/18 26/28/19 49/52/19 48/51/18 
f 26/28/19 28/30/20 50/53/20 49/52/19 
f 28/30/20 30/32/21 51/54/21 50/53/20 
f 30/32/21 4/4/1 32/34/1 51/54/21 
s off
f 16/18/27 15/17/27 52/17/27 53/18/27 
f 15/17/28 54/55/28 55/55/28 52/17/28 
f 54/55/28 56/56/28 57/56/28 55/55/28 
f 56/56/28 58/57/28 59/57/28 57/56/28 
f 58/57/28 17/19/28 60/19/28 59/57/28 
f 17/19/29 20/22/29 61/22/29 60/19/29 
f 20/22/30 43/46/30 62/46/30 61/22/30 
f 43/46/30 41/44/30 63/44/30 62/46/30 
f 41/44/30 39/42/30 64/42/30 63/44/30 
f 39/42/30 16/18/30 53/18/30 64/42/30 
s 1
f 32/34/28 31/33/28 33/35/28 51/54/28 
f 51/54/28 33/35/28 34/36/28 50/53/28 
f 50/53/28 34/36/28 35/37/28 49/52/28 
f 49/52/28 35/37/28 36/40/28 48/51/28 
f 48/51/28 36/40/28 37/39/28 47/50/28 
f 47/50/28 37/39/28 38/41/28 46/49/28 
f 46/49/28 38/41/28 40/43/28 45/48/28 
f 45/48/28 40/43/28 42/45/28 44/47/28 
f 9/9/30 7/7/30 5/5/30 11/13/30 
f 11/13/30 5/5/30 2/2/30 13/14/30 
f 13/14/30 2/2/30 1/1/30 15/17/30 
f 15/17/30 1/1/30 29/31/30 54/55/30 
f 54/55/30 29/31/30 27/29/30 56/56/30 
f 56/56/30 27/29/30 25/27/30 58/57/30 
f 58/57/30 25/27/30 23/25/30 17/19/30 
f 17/19/30 23/25/30 21/23/30 18/20/30 
# 58 polygons

#
# object Object001
#

v  -19.0847 64.6801 -10.1413
v  -14.3581 64.6801 -17.4078
v  -14.3581 0.0000 -17.4078
v  -19.0847 0.0000 -10.1413
v  -21.0545 64.6801 -1.6550
v  -21.0545 0.0000 -1.6550
v  -20.0030 64.6801 6.9932
v  -20.0030 0.0000 6.9932
v  -16.0801 64.6801 14.7232
v  -16.0801 0.0000 14.7232
v  -14.1486 0.0000 -17.2714
v  -18.8547 0.0000 -10.0433
v  -18.8547 64.6801 -10.0433
v  -14.1486 64.6801 -17.2714
v  -20.8048 0.0000 -1.6416
v  -20.8048 64.6801 -1.6416
v  -19.7638 0.0000 6.9204
v  -19.7638 64.6801 6.9204
v  -15.8572 0.0000 14.6100
v  -15.8572 64.6801 14.6100
# 20 vertices

vn -0.9201 0.0000 -0.3916
vn -0.8383 0.0000 -0.5453
vn -0.9201 -0.0000 -0.3916
vn -0.9986 0.0000 -0.0535
vn -0.9986 -0.0000 -0.0535
vn -0.9567 0.0000 0.2910
vn -0.8917 0.0000 0.4525
vn 0.0000 -1.0000 -0.0000
vn 0.0000 1.0000 -0.0000
vn 0.5456 0.0000 -0.8380
vn 0.4529 0.0000 0.8915
# 11 vertex normals

vt 0.1944 0.5000 1.0000
vt 0.1389 0.5000 1.0000
vt 0.1389 0.0000 1.0000
vt 0.1944 0.0000 1.0000
vt 0.2500 0.5000 1.0000
vt 0.2500 0.0000 1.0000
vt 0.3056 0.5000 1.0000
vt 0.3056 0.0000 1.0000
vt 0.3611 0.5000 1.0000
vt 0.3611 0.0000 1.0000
# 10 texture coords

g Object001
usemtl wire_113135006
s 8
f 65/58/31 66/59/32 67/60/32 68/61/33 
f 69/62/34 65/58/31 68/61/33 70/63/35 
f 71/64/36 69/62/34 70/63/35 72/65/36 
f 73/66/37 71/64/36 72/65/36 74/67/37 
s 1
f 75/60/38 76/61/38 68/61/38 67/60/38 
f 77/58/39 78/59/39 66/59/39 65/58/39 
s 2
f 78/59/40 75/60/40 67/60/40 66/59/40 
s 1
f 76/61/38 79/63/38 70/63/38 68/61/38 
f 80/62/39 77/58/39 65/58/39 69/62/39 
f 79/63/38 81/65/38 72/65/38 70/63/38 
f 82/64/39 80/62/39 69/62/39 71/64/39 
f 81/65/38 83/67/38 74/67/38 72/65/38 
s 2
f 83/67/41 84/66/41 73/66/41 74/67/41 
s 1
f 84/66/39 82/64/39 71/64/39 73/66/39 
# 14 polygons

