# 3ds Max Wavefront OBJ Exporter v0.97b - (c)2007 guruware
# File Created: 01.02.2016 11:00:21

#
# object 6x30_Hole
#

v  -3.0000 0.0000 -9.0000
v  3.0000 0.0000 -9.0000
v  -3.0000 0.0000 -15.0000
v  3.0000 0.0000 -15.0000
v  -3.0000 0.0000 -3.0000
v  3.0000 0.0000 -3.0000
v  -3.0000 0.0000 -9.0000
v  3.0000 0.0000 -9.0000
v  -3.0000 0.0000 9.0000
v  3.0000 0.0000 9.0000
v  -3.0000 0.0000 3.0000
v  3.0000 0.0000 3.0000
v  -3.0000 0.0000 15.0000
v  3.0000 0.0000 15.0000
v  -3.0000 0.0000 9.0000
v  3.0000 0.0000 9.0000
# 16 vertices

vn 0.0000 1.0000 -0.0000
vn 0.0000 1.0000 -0.0000
vn 0.0000 1.0000 -0.0000
vn 0.0000 1.0000 -0.0000
vn 0.0000 1.0000 -0.0000
vn 0.0000 1.0000 -0.0000
vn 0.0000 1.0000 -0.0000
vn 0.0000 1.0000 -0.0000
vn 0.0000 1.0000 -0.0000
vn 0.0000 1.0000 -0.0000
vn 0.0000 1.0000 -0.0000
vn 0.0000 1.0000 -0.0000
vn 0.0000 1.0000 -0.0000
vn 0.0000 1.0000 -0.0000
vn 0.0000 1.0000 -0.0000
vn 0.0000 1.0000 -0.0000
# 16 vertex normals

vt -0.0000 1.0000 0.0000
vt -0.0000 0.0000 0.0000
vt 1.0000 1.0000 0.0000
vt 1.0000 0.0000 0.0000
vt -0.0000 1.0000 0.0000
vt -0.0000 0.0000 0.0000
vt 1.0000 1.0000 0.0000
vt 1.0000 0.0000 0.0000
vt -0.0000 1.0000 0.0000
vt -0.0000 0.0000 0.0000
vt 1.0000 1.0000 0.0000
vt 1.0000 0.0000 0.0000
vt -0.0000 1.0000 0.0000
vt -0.0000 0.0000 0.0000
vt 1.0000 1.0000 0.0000
vt 1.0000 0.0000 0.0000
# 16 texture coords

g 6x30_Hole
s 1
f 4/4/1 3/3/2 1/1/3 2/2/4 
f 8/8/5 7/7/6 5/5/7 6/6/8 
f 12/12/9 11/11/10 9/9/11 10/10/12 
f 16/16/13 15/15/14 13/13/15 14/14/16 
# 4 polygons

